<?xml version="1.0" standalone="no"?>
<!DOCTYPE svg PUBLIC "-//W3C//DTD SVG 20010904//EN"
 "http://www.w3.org/TR/2001/REC-SVG-20010904/DTD/svg10.dtd">
<svg version="1.0" xmlns="http://www.w3.org/2000/svg"
 width="3464.000000pt" height="3464.000000pt" viewBox="0 0 3464.000000 3464.000000"
 preserveAspectRatio="xMidYMid meet">

<g transform="translate(0.000000,3464.000000) scale(0.100000,-0.100000)"
fill="#000000" stroke="none">
<path d="M25035 26016 c-27 -13 -57 -32 -66 -42 -16 -19 -56 -108 -79 -175 -7
-20 -25 -42 -41 -52 -26 -14 -29 -21 -29 -69 0 -49 3 -55 30 -71 26 -16 30
-24 30 -62 0 -38 -3 -44 -22 -47 -15 -2 -24 -11 -26 -25 -2 -13 -9 -23 -16
-23 -8 0 -19 -35 -30 -93 -10 -52 -24 -105 -31 -118 -40 -68 -65 -127 -65
-152 0 -28 -91 -318 -174 -552 -39 -109 -41 -120 -25 -125 17 -5 17 -8 -3 -50
-12 -25 -33 -79 -47 -120 -23 -67 -29 -75 -53 -78 -45 -5 -128 -140 -128 -207
0 -52 -39 -205 -60 -235 -10 -14 -25 -56 -35 -95 -9 -38 -22 -79 -29 -90 -7
-11 -30 -64 -50 -117 -33 -85 -41 -98 -61 -98 -13 0 -27 -5 -31 -11 -3 -6 -29
-75 -56 -152 -28 -78 -63 -179 -80 -225 -20 -58 -31 -110 -35 -172 -6 -89 -6
-89 20 -101 36 -16 43 -40 17 -61 -11 -9 -24 -18 -29 -20 -10 -3 -27 -128 -38
-270 l-6 -78 36 0 c35 0 36 -1 27 -25 -7 -19 -6 -25 3 -25 13 0 11 -48 -8
-157 -5 -34 -4 -43 8 -43 11 0 12 -9 7 -42 -10 -57 -22 -84 -64 -138 -19 -24
-33 -47 -31 -50 8 -13 -154 -14 -186 -1 -13 5 -49 31 -79 58 -31 27 -75 55
-98 62 -31 11 -52 27 -77 63 -23 31 -42 48 -56 48 -39 0 -64 18 -170 123 -44
42 -86 77 -95 77 -9 0 -29 11 -46 25 -16 14 -41 25 -55 25 -29 0 -67 36 -229
220 -91 102 -109 128 -101 142 16 24 -5 44 -66 63 -35 12 -65 31 -93 60 -22
23 -70 57 -105 76 -53 28 -175 137 -244 219 -5 6 -35 26 -65 44 -36 21 -55 39
-55 52 0 14 -14 24 -54 38 -41 15 -70 37 -127 95 -68 70 -72 76 -52 82 21 5
20 8 -22 38 -26 18 -60 57 -80 91 -39 64 -145 195 -200 244 -19 17 -55 52 -80
78 -33 33 -61 51 -100 62 -59 18 -100 51 -271 219 -102 99 -108 107 -81 107
l29 0 -61 122 c-52 103 -66 124 -88 128 -39 8 -182 145 -238 230 -27 41 -79
111 -115 155 -36 44 -83 105 -104 135 -21 30 -67 81 -102 112 -84 75 -101 91
-120 114 -9 10 -33 34 -53 53 -20 19 -42 46 -49 60 -15 32 -89 70 -138 71 -38
0 -84 -28 -120 -74 -18 -23 -20 -35 -15 -75 4 -28 0 -92 -8 -147 -19 -125 -6
-267 44 -469 12 -49 23 -101 25 -115 1 -14 3 -30 3 -37 1 -6 12 -13 24 -15 28
-4 48 -75 48 -175 l0 -73 -38 0 c-37 0 -38 0 -40 -43 -1 -24 -6 -83 -11 -130
-6 -55 -7 -108 -1 -144 6 -33 9 -163 7 -291 l-2 -232 -22 0 c-13 0 -23 -3 -23
-7 0 -71 -17 -289 -29 -368 -5 -33 -6 -159 -3 -280 6 -276 6 -281 -3 -361 l-7
-66 -31 5 c-122 19 -308 66 -333 84 -38 27 -150 83 -166 83 -7 0 -24 15 -38
32 -43 55 -82 87 -137 110 -35 14 -53 28 -53 39 0 18 -45 49 -101 68 -19 7
-59 32 -89 56 -30 24 -95 72 -145 107 -105 73 -99 67 -199 181 -60 68 -75 91
-67 101 13 16 0 29 -39 41 -33 10 -135 83 -183 131 l-39 39 27 5 c26 5 24 7
-47 72 -56 50 -79 78 -93 115 -33 88 -83 178 -131 239 -27 32 -51 60 -55 62
-13 6 -116 88 -144 115 -109 104 -225 223 -225 229 0 5 11 8 25 8 l24 0 -31
53 c-17 28 -42 68 -54 88 -26 41 -104 109 -125 109 -26 0 -110 105 -149 186
-21 45 -47 88 -57 95 -11 8 -28 32 -38 54 -11 22 -29 57 -42 78 -23 36 -25 37
-81 37 -51 0 -62 -4 -84 -27 -45 -49 -65 -110 -71 -213 -3 -54 -12 -111 -21
-132 -21 -48 -21 -78 0 -78 15 0 16 -9 11 -67 -4 -38 -7 -94 -7 -125 l0 -58
-31 0 -32 0 8 -87 c4 -49 10 -171 14 -273 7 -173 9 -191 38 -270 17 -47 34
-113 38 -147 l7 -63 -27 0 -26 0 7 -62 c3 -35 13 -92 21 -128 8 -36 23 -103
33 -150 10 -47 23 -103 29 -125 5 -22 15 -73 21 -114 11 -67 15 -75 41 -84 41
-16 45 -38 13 -63 -25 -21 -26 -23 -11 -50 30 -57 55 -113 67 -150 47 -143 55
-159 85 -164 18 -3 34 -14 40 -28 5 -12 17 -22 25 -22 27 -1 110 -136 110
-180 0 -10 6 -20 13 -23 7 -2 14 -20 15 -38 2 -18 14 -58 28 -88 111 -233 119
-331 33 -392 -31 -22 -34 -22 -148 -11 -86 9 -142 21 -216 47 -69 25 -136 40
-219 50 -123 15 -214 37 -250 60 -12 7 -52 25 -91 40 -38 14 -97 41 -130 59
-33 18 -96 47 -140 64 -44 16 -98 40 -120 51 -74 38 -274 120 -342 139 -37 11
-92 23 -122 26 -42 4 -69 16 -122 51 -37 25 -72 45 -77 45 -6 0 -37 20 -70 45
-68 51 -160 82 -192 65 -10 -5 -28 -10 -39 -10 -13 0 -26 -12 -36 -34 -14 -28
-15 -44 -6 -91 6 -31 20 -68 31 -82 11 -14 20 -31 20 -39 0 -21 70 -147 104
-185 104 -119 164 -213 209 -325 21 -51 37 -95 37 -100 0 -4 9 -26 19 -48 27
-57 51 -117 51 -127 0 -5 -12 -9 -26 -9 -34 0 -27 -21 14 -39 38 -17 49 -41
26 -58 -17 -12 -16 -14 3 -35 11 -13 35 -50 53 -83 30 -55 57 -89 145 -185 35
-38 123 -167 148 -215 8 -17 25 -39 37 -50 12 -11 63 -103 113 -205 50 -102
97 -189 104 -193 7 -5 11 -12 8 -18 -4 -5 10 -9 29 -9 26 0 36 -4 36 -15 0 -8
4 -23 10 -33 5 -9 19 -53 30 -96 11 -44 28 -89 39 -100 19 -21 30 -53 78 -211
14 -49 40 -109 57 -133 17 -24 41 -61 53 -83 12 -22 28 -50 36 -62 14 -22 16
-31 37 -142 10 -55 8 -123 -7 -182 -3 -15 -13 -23 -27 -23 -15 0 -27 -9 -34
-25 -7 -15 -20 -25 -32 -25 -11 0 -19 -4 -18 -9 2 -4 -26 -40 -62 -78 -84 -91
-133 -109 -255 -93 -109 15 -135 24 -206 77 -71 51 -112 95 -98 104 6 3 3 11
-6 19 -20 16 -19 28 2 32 12 2 -2 22 -55 76 -39 39 -77 72 -85 72 -23 0 -39
24 -25 38 11 11 0 28 -96 139 -10 12 -36 29 -58 38 -23 9 -36 20 -32 26 3 6
-21 39 -54 73 -153 157 -377 376 -384 376 -10 0 -144 134 -192 193 -27 33 -46
47 -63 47 -15 0 -33 10 -44 24 -68 86 -317 338 -482 489 -60 54 -89 88 -98
115 -10 31 -64 146 -149 316 -18 35 -18 40 -4 50 22 17 8 43 -32 56 -40 14
-46 40 -8 40 l25 0 -43 81 c-42 78 -143 211 -196 257 -22 19 -34 22 -62 17
-66 -12 -95 -33 -124 -90 -16 -29 -56 -80 -89 -112 -33 -32 -81 -79 -105 -105
-33 -34 -54 -48 -73 -48 -35 0 -56 -24 -39 -45 18 -21 -3 -43 -49 -51 -20 -4
-41 -10 -46 -15 -6 -4 -37 -18 -70 -30 -44 -16 -75 -37 -117 -80 -37 -38 -63
-57 -72 -53 -20 8 -66 -39 -66 -66 0 -35 -19 -22 -31 23 -8 26 -32 63 -66 99
-29 31 -53 63 -53 71 0 9 -2 22 -6 30 -3 10 4 16 25 20 17 4 31 11 31 16 0 12
-53 41 -75 41 -8 0 -15 5 -15 10 0 6 -7 10 -16 10 -8 0 -12 5 -9 10 3 6 17 10
31 10 20 0 23 3 16 18 -5 9 -18 55 -28 102 -10 47 -26 99 -36 115 -47 78 -78
154 -84 210 -6 56 -49 255 -76 353 -7 23 -18 42 -24 42 -15 0 -70 113 -79 163
-4 20 -11 37 -17 37 -5 0 -8 6 -7 13 3 28 -2 36 -28 39 -24 3 -28 8 -31 38 -1
19 -12 95 -23 169 l-22 134 23 17 c33 25 23 52 -23 63 -59 14 -85 67 -92 192
-10 150 -28 182 -97 168 -55 -10 -85 -30 -117 -79 -51 -75 -72 -122 -86 -196
-12 -65 -12 -70 6 -81 24 -15 24 -53 0 -66 -12 -7 -21 -26 -25 -54 -4 -24 -20
-97 -36 -163 -17 -65 -30 -124 -30 -131 0 -6 10 -13 22 -15 17 -2 22 -9 20
-25 -2 -13 2 -23 7 -23 15 0 -21 -90 -58 -147 -17 -26 -27 -49 -22 -52 4 -3
-10 -49 -31 -101 -22 -52 -62 -149 -90 -215 -27 -66 -55 -127 -62 -135 -19
-21 -51 -88 -66 -135 -6 -22 -32 -88 -58 -147 -43 -101 -48 -108 -74 -108 -23
0 -28 -4 -28 -24 0 -15 7 -26 20 -29 11 -3 20 -10 20 -16 0 -13 -26 -15 -34
-2 -8 12 -120 33 -141 25 -10 -4 -21 -1 -26 7 -16 25 -10 38 20 41 l29 3 -18
35 c-11 19 -24 46 -29 60 -6 14 -15 32 -21 40 -5 8 -21 36 -34 61 -14 25 -41
67 -60 92 -23 31 -51 90 -79 174 -51 147 -80 226 -87 233 -15 15 -50 71 -50
80 0 5 -4 10 -8 10 -8 0 -10 8 -13 48 -2 26 -63 154 -86 180 -11 12 -25 22
-31 22 -5 0 -17 11 -26 25 -11 17 -26 25 -45 25 -20 0 -31 7 -42 28 -7 15 -32
52 -54 82 -21 30 -66 109 -98 175 -33 66 -77 139 -98 161 -34 38 -59 94 -59
133 0 23 -22 80 -66 171 -22 47 -52 119 -66 160 -57 167 -59 180 -28 180 27 0
25 9 -11 92 -32 74 -69 240 -69 313 0 42 -24 152 -35 163 -8 9 -78 32 -96 32
-27 0 -47 -33 -85 -140 -42 -120 -82 -210 -93 -210 -11 0 -91 -160 -91 -181 0
-32 -25 -69 -47 -69 -24 0 -34 -25 -48 -120 -4 -25 -16 -69 -27 -98 -11 -29
-18 -62 -15 -73 3 -10 -1 -22 -8 -27 -7 -4 -30 -58 -51 -121 -23 -71 -51 -131
-71 -158 -37 -48 -40 -58 -18 -67 29 -11 15 -36 -34 -60 -31 -16 -62 -43 -86
-76 -23 -31 -43 -49 -51 -46 -8 3 -14 2 -14 -2 0 -8 -70 -37 -74 -30 -1 1 -13
21 -26 43 -13 22 -33 50 -44 63 l-21 23 24 18 c20 15 22 21 12 39 -7 12 -17
22 -24 22 -33 0 -48 27 -62 117 -14 89 -39 195 -49 211 -2 4 -1 14 4 22 6 9 4
20 -4 30 -26 31 -26 49 2 70 29 23 29 22 -22 55 -11 7 -15 28 -16 75 -2 92 -3
90 25 90 30 0 29 -14 14 225 -10 140 -9 207 0 305 19 189 25 218 52 273 16 30
25 37 48 37 36 0 40 6 81 110 18 47 36 89 41 94 15 16 10 46 -7 46 -18 0 -14
19 17 87 10 24 19 48 19 54 0 6 7 25 15 42 62 135 71 209 31 251 -13 15 -32
26 -43 26 -51 0 -212 -91 -272 -153 -25 -26 -53 -42 -104 -57 -63 -19 -77 -29
-152 -103 -45 -45 -99 -97 -121 -114 -27 -23 -34 -33 -22 -33 26 0 12 -21 -40
-59 -26 -18 -56 -47 -67 -64 -31 -47 -153 -127 -195 -127 -27 0 -50 -12 -102
-54 -37 -30 -85 -64 -108 -77 -22 -12 -40 -26 -40 -30 0 -5 -46 -31 -101 -59
-56 -28 -119 -65 -141 -83 -21 -18 -51 -42 -66 -54 -14 -12 -50 -32 -78 -44
l-52 -21 -41 27 c-81 54 -94 109 -76 313 l7 82 34 0 c33 0 34 2 34 38 0 20 4
51 9 68 6 20 4 50 -3 85 -10 43 -17 55 -34 57 -18 3 -21 8 -16 30 3 15 12 90
19 167 8 77 19 163 25 190 31 151 25 222 -19 248 -42 24 -57 21 -98 -18 -39
-38 -45 -40 -117 -50 -54 -7 -54 -7 -265 -210 -208 -200 -354 -355 -334 -355
22 0 14 -12 -53 -82 -133 -137 -171 -168 -206 -168 -22 0 -45 -10 -68 -29 -37
-30 -223 -111 -255 -111 -10 0 -40 14 -67 30 -26 17 -50 30 -53 30 -3 0 -28
17 -57 37 -51 37 -51 38 -26 43 26 5 26 6 -33 70 -123 133 -173 180 -195 180
-20 0 -74 65 -74 89 0 5 -7 14 -15 21 -7 6 -27 35 -44 63 -16 29 -45 68 -63
88 -18 19 -45 51 -59 70 -15 18 -41 50 -59 69 -109 116 -169 176 -200 199 -19
14 -37 28 -40 31 -25 25 -69 37 -112 31 -62 -10 -75 -22 -88 -86 -15 -73 17
-271 61 -376 17 -41 40 -102 52 -136 15 -45 26 -63 41 -65 16 -2 24 -22 46
-103 14 -55 30 -110 34 -122 6 -19 4 -23 -14 -23 -17 0 -20 -4 -15 -17 40 -93
88 -278 111 -423 8 -58 30 -161 49 -230 48 -186 47 -170 19 -170 -23 0 -24 -2
-24 -80 0 -79 0 -80 31 -95 24 -13 28 -19 19 -30 -7 -8 -20 -17 -31 -20 -22
-7 -26 -44 -7 -63 10 -10 10 -17 0 -33 -10 -15 -12 -52 -7 -142 8 -173 11
-186 43 -200 15 -6 30 -16 34 -21 11 -16 -9 -43 -37 -50 -15 -4 -25 -13 -25
-24 0 -10 -18 -54 -39 -97 -38 -76 -45 -84 -142 -155 -81 -59 -98 -76 -81 -78
29 -4 28 -14 -5 -34 -23 -14 -24 -18 -9 -18 21 0 -76 -71 -156 -114 -82 -45
-139 -84 -127 -88 6 -2 -18 -18 -54 -36 -36 -18 -71 -40 -79 -49 -7 -9 -51
-34 -98 -56 -46 -21 -98 -50 -116 -63 -17 -13 -60 -36 -95 -50 -35 -14 -89
-43 -119 -63 -30 -21 -82 -48 -115 -61 -79 -32 -140 -89 -166 -160 -20 -53
-20 -57 -5 -107 l17 -52 363 0 c304 -1 369 -3 400 -16 20 -9 72 -22 114 -31
42 -8 95 -23 117 -33 22 -10 59 -27 83 -36 23 -10 38 -21 32 -25 -15 -10 85
-38 165 -46 70 -7 155 -36 155 -52 0 -5 42 -29 93 -54 107 -54 200 -74 382
-83 174 -9 302 -25 370 -46 79 -25 254 -111 251 -124 -2 -5 11 -16 27 -23 28
-11 29 -13 13 -30 -9 -10 -16 -29 -16 -43 0 -13 -11 -68 -24 -121 -13 -53 -32
-140 -41 -195 -10 -54 -25 -111 -33 -128 -14 -27 -42 -119 -42 -137 0 -5 11
-8 24 -8 28 0 28 6 0 -119 -10 -44 -13 -90 -10 -116 4 -23 3 -53 -3 -66 -5
-13 -17 -51 -27 -84 -9 -33 -27 -80 -39 -105 -28 -58 -61 -168 -75 -250 -10
-60 -80 -282 -101 -322 -6 -10 -17 -18 -27 -18 -42 -1 -89 -187 -108 -435 -6
-74 -5 -82 15 -99 21 -19 23 -19 50 -3 48 28 109 90 133 135 13 23 46 66 74
95 51 52 99 106 164 186 57 71 111 121 130 121 22 0 151 131 194 198 18 28 66
84 107 124 41 40 90 93 109 118 19 25 41 49 49 54 9 5 32 27 51 49 49 56 118
120 143 134 12 7 45 12 73 13 42 0 54 -4 76 -27 25 -28 84 -146 106 -213 32
-97 49 -171 41 -176 -26 -16 12 -99 58 -127 55 -32 124 -147 89 -147 -25 0
-13 -67 26 -145 20 -38 47 -103 62 -143 39 -110 96 -206 147 -249 14 -12 57
-75 95 -140 38 -64 96 -147 129 -183 84 -91 153 -198 139 -213 -4 -3 12 -11
35 -17 23 -6 41 -14 41 -18 0 -4 20 -29 44 -55 32 -34 50 -66 63 -110 11 -34
15 -65 10 -68 -8 -6 26 -98 58 -159 8 -14 25 -51 39 -82 22 -50 23 -59 9 -66
-13 -8 -13 -14 5 -48 15 -30 21 -65 24 -147 4 -94 7 -110 26 -129 18 -18 25
-20 46 -10 15 6 28 23 32 39 4 15 11 37 17 48 6 11 11 29 12 40 13 175 17 193
41 204 l24 10 -2 276 -2 275 -29 0 -30 0 5 187 c3 102 1 221 -3 262 -5 42 -10
108 -10 146 0 39 -5 106 -11 150 -6 47 -7 134 -3 212 7 125 8 132 28 135 20 3
22 8 19 63 -2 47 -8 64 -24 78 l-22 18 31 25 c20 15 33 36 37 60 10 48 27 84
41 84 6 0 22 -19 35 -42 12 -24 32 -53 42 -64 11 -12 18 -30 16 -39 -2 -10 6
-22 17 -29 61 -35 93 -60 122 -97 36 -46 40 -59 18 -59 -18 0 -18 -5 -5 -31 8
-15 7 -19 -5 -19 -17 0 -20 -11 -6 -26 5 -5 23 -52 39 -104 42 -128 60 -178
81 -225 11 -22 29 -85 40 -139 22 -99 30 -120 62 -166 10 -14 29 -70 43 -125
46 -189 52 -204 82 -230 17 -15 42 -25 59 -25 17 0 43 -9 60 -20 22 -14 31
-16 37 -7 13 21 9 27 -17 27 -25 0 -25 1 -11 29 9 17 17 74 21 147 4 70 14
142 25 174 41 125 50 160 50 188 0 15 6 51 14 78 14 49 27 122 45 247 5 37 18
79 29 95 11 15 23 37 26 50 4 12 11 22 16 22 5 0 7 9 5 19 -4 23 9 36 48 45
18 4 27 13 27 27 0 42 42 103 87 128 50 26 67 11 136 -116 21 -38 21 -43 3
-43 -15 0 -15 -51 0 -72 6 -7 16 -25 24 -40 7 -15 21 -36 31 -46 9 -11 22 -49
27 -86 10 -60 31 -105 69 -144 6 -7 15 -34 18 -60 7 -53 44 -144 85 -213 16
-26 36 -75 45 -110 10 -35 38 -121 64 -191 46 -126 46 -127 80 -130 32 -3 34
-6 57 -78 14 -41 31 -84 38 -95 7 -11 21 -44 31 -74 10 -30 44 -106 75 -170
94 -188 109 -225 122 -285 9 -46 8 -62 -3 -82 -12 -23 -10 -31 16 -82 20 -38
40 -61 60 -70 33 -15 70 -78 60 -103 -4 -10 0 -19 10 -23 10 -4 14 -13 11 -24
-7 -21 35 -63 110 -110 59 -37 77 -39 120 -13 27 16 31 25 32 66 2 31 8 52 19
60 15 11 15 13 -2 22 -17 10 -17 12 -2 27 20 20 13 71 -13 101 -16 17 -17 28
-8 77 8 47 15 60 36 70 21 11 29 26 42 88 10 41 24 101 33 133 22 81 39 207
36 280 -1 34 1 113 6 175 l8 112 -28 0 -27 0 7 128 c7 124 29 239 61 318 35
87 66 145 78 150 7 3 19 24 26 47 6 23 18 57 26 75 8 18 14 41 14 52 0 35 19
31 44 -9 14 -22 33 -45 43 -53 22 -16 102 -136 136 -203 28 -56 68 -96 172
-176 39 -29 75 -58 80 -65 11 -13 115 -81 155 -101 14 -7 58 -47 99 -88 57
-58 80 -75 102 -75 31 0 84 -47 109 -97 17 -34 101 -147 112 -151 11 -5 27
-22 58 -62 14 -18 30 -37 35 -44 60 -70 125 -169 125 -190 0 -8 -6 -16 -12
-19 -23 -7 13 -57 113 -157 52 -52 110 -117 129 -145 18 -27 44 -59 57 -70 13
-11 29 -41 36 -68 15 -59 74 -139 142 -194 l53 -42 34 22 c25 17 36 35 47 75
11 40 18 52 33 52 18 0 19 8 17 150 -2 147 -2 150 -24 156 -29 7 -35 29 -35
132 0 80 1 83 27 93 l26 10 -8 147 c-8 150 -7 341 2 355 11 18 -9 47 -34 47
l-26 0 6 138 c9 200 23 282 56 321 15 17 32 31 38 31 6 0 19 12 28 27 17 26
18 26 34 7 24 -28 144 -112 172 -119 13 -3 42 -22 64 -42 22 -20 93 -78 157
-130 65 -52 127 -106 138 -121 55 -70 102 -112 125 -112 30 0 41 -9 171 -136
57 -56 101 -104 97 -108 -3 -3 4 -6 16 -6 13 0 32 -11 43 -25 11 -14 45 -43
76 -64 32 -21 102 -84 157 -140 55 -55 104 -101 110 -101 6 0 29 -24 52 -53
23 -28 63 -72 88 -97 25 -24 45 -50 45 -58 0 -18 57 -79 100 -106 19 -12 60
-32 90 -45 72 -29 129 -81 123 -113 -5 -24 20 -55 107 -134 56 -50 95 -107
110 -159 32 -113 70 -375 70 -490 0 -66 3 -170 7 -232 6 -104 8 -112 27 -115
15 -2 21 -10 20 -25 0 -15 5 -23 16 -23 14 0 17 -13 16 -95 l-1 -95 -39 0 -39
0 8 -162 c9 -174 8 -535 -1 -630 -5 -47 -9 -58 -24 -58 -12 0 -20 -10 -24 -31
-10 -52 -7 -65 19 -92 l26 -25 -25 -20 c-20 -15 -25 -28 -25 -63 0 -24 -2
-119 -5 -211 -4 -93 -3 -168 2 -168 4 0 17 -6 27 -14 19 -13 18 -15 -13 -44
-27 -25 -33 -41 -42 -98 -5 -38 -10 -126 -10 -196 l0 -128 24 0 c31 0 36 -20
36 -142 0 -76 3 -98 14 -98 20 0 12 -67 -24 -210 -5 -19 -19 -80 -30 -135 -36
-164 -122 -372 -195 -470 -13 -16 -25 -39 -27 -50 -2 -15 -15 -21 -56 -27 -29
-5 -72 -17 -95 -29 -63 -32 -161 -104 -192 -141 -72 -86 -124 -135 -167 -158
-69 -36 -168 -133 -168 -164 0 -38 30 -94 54 -100 43 -12 90 -5 150 20 33 14
77 33 96 41 56 23 206 171 229 226 11 26 26 47 32 47 7 0 20 6 28 14 9 8 30
16 46 18 l30 3 -1 -75 c-1 -68 -6 -84 -46 -165 -25 -49 -52 -110 -61 -135 -44
-129 -69 -220 -74 -267 -6 -50 -5 -52 28 -72 23 -14 51 -21 86 -21 43 0 56 4
76 26 20 21 23 33 19 69 -2 24 -2 54 1 67 6 23 62 88 89 104 16 9 100 118 111
144 36 79 173 211 217 207 46 -3 68 -36 72 -107 3 -36 17 -105 32 -155 25 -81
27 -95 17 -144 -6 -30 -11 -78 -11 -106 0 -43 4 -55 26 -74 58 -50 139 -65
184 -34 58 40 62 51 54 148 -8 114 -8 113 -6 282 2 114 5 145 18 158 10 10 13
22 8 33 -4 9 -6 21 -5 26 1 5 -5 16 -12 25 -9 10 -17 53 -21 121 -3 58 -9 115
-12 127 -5 19 -1 25 23 35 29 13 33 34 9 50 -8 6 -8 8 0 8 7 0 1 36 -16 98
-32 112 -31 169 3 241 23 51 88 134 159 205 41 41 154 198 167 231 2 6 15 22
29 38 16 17 21 27 12 27 -9 0 -4 10 12 28 15 15 51 68 81 117 40 65 52 91 41
93 -14 4 -20 22 -6 22 4 0 19 19 34 43 15 24 62 77 105 119 43 41 101 101 128
133 28 32 61 69 75 82 75 70 71 65 52 79 -16 12 -16 15 3 51 10 21 36 58 56
83 20 25 57 75 81 112 25 38 67 92 94 121 30 33 61 80 78 123 37 88 62 124 87
124 10 0 19 4 19 10 0 5 35 47 78 92 66 71 149 180 188 249 28 49 119 109 165
109 11 0 61 -43 120 -102 85 -87 107 -116 137 -183 20 -44 49 -100 65 -125 23
-37 25 -46 12 -48 -8 -2 -15 -5 -15 -7 0 -9 121 -183 134 -194 8 -7 24 -37 35
-66 30 -81 62 -146 93 -192 15 -23 28 -46 28 -51 0 -20 82 -101 109 -107 29
-6 58 -45 47 -63 -3 -5 8 -27 24 -48 16 -21 30 -44 30 -50 0 -6 7 -17 15 -24
9 -7 31 -41 50 -75 19 -34 43 -71 53 -83 28 -33 45 -55 75 -95 18 -24 36 -37
51 -37 28 0 65 -44 120 -141 32 -57 68 -99 85 -99 9 -1 37 -31 64 -68 26 -37
72 -98 101 -136 30 -38 71 -103 91 -144 20 -41 60 -102 89 -136 30 -34 70 -95
90 -136 21 -41 55 -104 76 -140 22 -36 38 -69 37 -74 -2 -6 6 -19 17 -30 l20
-20 -32 -8 c-24 -6 -30 -12 -25 -26 9 -24 110 -179 148 -227 17 -22 44 -62 60
-90 15 -27 41 -63 58 -80 82 -81 187 -287 211 -411 25 -135 64 -204 115 -204
26 0 68 -39 136 -125 82 -105 107 -125 150 -125 19 0 35 -4 35 -10 0 -5 6 -10
13 -10 25 0 92 -79 152 -180 33 -56 160 -194 199 -217 24 -14 86 -145 86 -180
0 -23 5 -35 18 -40 9 -3 40 -15 67 -28 38 -16 56 -20 78 -12 31 10 34 19 12
37 -8 7 -13 15 -11 19 3 4 7 25 9 46 3 22 8 47 12 57 8 20 -16 69 -61 124 -19
23 -34 45 -34 51 0 5 -20 33 -45 62 -25 29 -45 57 -45 63 0 5 -9 22 -19 36
-31 45 -70 148 -60 163 6 11 0 15 -28 19 -33 4 -38 9 -45 40 -4 19 -4 46 -1
59 5 21 9 22 42 16 20 -4 50 -9 66 -12 55 -9 119 -44 192 -103 7 -6 23 -15 35
-21 13 -5 33 -16 45 -23 16 -9 38 -11 69 -6 38 6 50 4 65 -11 11 -11 33 -19
51 -19 17 0 39 -6 47 -14 9 -7 38 -19 65 -25 51 -13 117 -47 151 -79 11 -10
35 -27 53 -37 31 -19 33 -19 66 -1 20 11 41 33 51 56 l17 39 -43 53 c-54 66
-78 88 -95 88 -19 0 -160 114 -231 187 -38 39 -70 63 -83 63 -35 0 -74 29 -93
69 -11 23 -32 44 -50 53 l-32 15 45 23 c86 44 215 58 265 29 25 -15 89 -30
163 -39 46 -5 93 -17 108 -26 34 -23 123 -24 157 -1 14 9 32 36 41 63 20 59
13 72 -76 140 -74 57 -105 68 -230 88 -81 13 -171 24 -528 66 -84 10 -136 6
-225 -15 -143 -35 -343 -47 -362 -22 -6 6 -13 56 -17 110 -6 94 -6 99 16 118
22 18 22 20 5 33 -13 10 -15 15 -5 18 10 4 10 8 -2 23 -11 14 -14 42 -12 124
4 147 7 161 44 168 23 5 29 10 25 25 -6 21 21 146 52 243 11 33 27 96 35 140
9 44 21 103 26 130 10 49 40 185 65 297 7 32 8 59 4 60 -8 3 -1 83 17 194 5
36 3 42 -14 46 -20 6 -20 6 3 94 44 167 84 251 148 319 43 44 45 45 107 45 35
0 98 -9 139 -19 42 -11 103 -25 136 -32 60 -12 145 -50 217 -95 47 -30 103
-41 243 -49 61 -3 124 -8 140 -10 17 -1 84 -6 150 -10 66 -3 149 -10 185 -15
36 -5 110 -10 165 -10 55 -1 150 -8 210 -15 61 -7 153 -16 205 -20 96 -7 185
-30 250 -64 68 -37 145 -52 308 -62 99 -6 194 -17 245 -30 45 -11 104 -24 130
-29 27 -5 79 -25 116 -44 37 -19 96 -42 131 -51 72 -19 97 -30 121 -54 51 -51
100 -91 112 -91 19 0 43 -37 63 -97 10 -31 32 -64 62 -94 31 -29 54 -63 66
-97 10 -29 22 -55 27 -57 5 -3 16 -21 25 -40 25 -53 149 -175 178 -175 21 0
33 20 44 74 9 43 7 56 -12 100 -13 29 -34 69 -48 91 -13 22 -31 62 -38 90 -10
36 -27 63 -62 98 -65 65 -86 107 -54 107 7 0 16 14 20 30 8 40 40 52 106 40
28 -5 61 -15 73 -21 30 -16 72 -49 62 -49 -16 0 30 -42 65 -60 19 -10 52 -34
73 -54 46 -43 71 -51 139 -42 81 11 88 18 88 84 0 57 0 57 -68 129 -83 89
-208 183 -242 183 -17 0 -40 14 -64 39 -23 23 -68 52 -111 71 -47 20 -76 40
-83 55 -6 12 -31 37 -56 56 -25 18 -46 36 -46 40 0 11 50 41 79 46 78 14 103
12 191 -10 58 -15 118 -39 155 -61 33 -20 84 -44 113 -52 29 -9 68 -28 85 -44
37 -31 79 -54 121 -64 16 -4 48 -23 71 -42 23 -19 52 -34 65 -34 12 0 35 -11
52 -25 38 -32 104 -52 126 -38 10 5 18 22 20 37 3 22 0 26 -22 26 -22 0 -26 5
-26 28 0 22 -14 40 -62 84 -35 30 -85 65 -113 77 -27 12 -61 32 -75 45 -26 24
-163 107 -240 146 -25 12 -70 40 -100 61 -62 43 -186 81 -333 104 -51 7 -104
18 -118 23 -64 25 -135 31 -195 17 -115 -26 -221 7 -305 96 -44 46 -114 167
-145 249 -7 19 -22 60 -33 90 -26 67 -26 70 -2 70 18 0 19 3 9 33 -13 37 -32
70 -71 125 -15 21 -34 64 -42 97 -14 54 -14 59 2 78 27 29 88 57 126 57 53 0
148 20 195 41 24 11 98 33 165 50 67 17 129 37 137 44 24 21 63 34 210 65 194
41 239 44 355 25 246 -40 355 -42 680 -16 72 6 191 15 265 20 115 8 146 14
209 40 41 17 82 31 92 31 35 0 172 42 213 65 48 27 121 48 224 65 39 6 72 16
72 21 0 5 27 9 60 9 33 0 60 4 60 9 0 5 12 12 28 16 15 3 65 26 112 49 81 41
223 83 345 102 47 7 48 8 20 15 -16 4 -22 7 -13 8 21 1 90 33 99 44 11 15 81
25 248 38 197 14 313 8 377 -21 26 -11 56 -20 67 -20 11 0 35 -11 53 -25 18
-14 45 -25 59 -25 15 0 39 -10 52 -22 50 -44 153 -154 153 -162 0 -3 -21 -6
-47 -6 -54 0 -51 -6 23 -47 28 -15 90 -64 137 -108 92 -85 107 -92 168 -87 44
5 53 28 19 50 -11 7 -20 21 -20 31 0 11 -16 50 -35 87 -19 37 -35 68 -35 70 0
2 12 4 28 5 27 0 27 1 5 11 -13 6 -23 15 -23 20 0 4 -6 8 -14 8 -8 0 -17 8
-20 18 -4 10 -20 28 -36 40 -16 12 -37 37 -46 55 -10 17 -24 37 -33 44 -9 6
-16 17 -16 24 0 7 -13 16 -29 20 -17 5 -34 15 -38 24 -5 8 -16 15 -23 15 -8 0
-15 4 -15 10 0 5 -38 27 -84 49 -82 40 -96 53 -96 92 0 29 -31 59 -62 59 -18
0 -28 5 -28 14 0 21 107 9 141 -16 14 -11 59 -26 100 -34 58 -12 81 -23 109
-49 47 -44 62 -50 155 -70 44 -9 82 -19 85 -24 13 -19 57 -41 83 -41 16 0 35
-7 43 -15 22 -22 34 -18 34 10 0 14 1 28 3 33 1 4 -17 13 -40 20 -34 11 -44
20 -58 55 -9 22 -24 52 -34 66 -10 14 -24 43 -32 64 -7 20 -16 37 -20 37 -4 0
-11 9 -14 20 -3 11 -17 23 -30 26 -29 7 -60 51 -57 82 1 12 -3 22 -8 22 -6 0
-10 -9 -10 -20 0 -28 -18 -25 -32 5 -7 16 -19 25 -35 25 -25 0 -32 24 -9 33
18 7 72 -7 92 -24 8 -6 14 -19 14 -28 0 -24 229 -30 265 -7 31 21 31 36 0 85
-27 43 -68 78 -130 109 -22 11 -49 29 -59 41 -30 33 -210 79 -481 123 -196 32
-264 34 -316 8 -24 -12 -58 -33 -75 -45 -37 -28 -124 -55 -176 -55 -49 0 -109
30 -162 82 -44 43 -95 78 -221 152 -160 94 -260 159 -268 173 -5 8 -10 39 -12
70 -3 43 -8 58 -25 70 -33 23 -20 71 55 214 8 14 23 51 35 82 17 46 29 61 58
76 40 21 47 30 104 141 21 41 52 93 68 115 15 22 31 53 34 70 4 16 20 46 36
67 17 20 30 40 30 44 0 5 18 34 41 66 36 52 38 58 20 58 -21 0 -21 0 1 38 13
20 30 53 40 72 9 19 36 78 61 130 24 53 52 104 62 113 45 45 67 298 34 392
-13 36 -23 44 -102 85 -48 25 -91 50 -95 56 -12 19 -93 45 -186 60 -277 45
-439 81 -409 91 9 3 6 11 -8 26 -16 18 -17 22 -5 27 13 4 12 12 -4 50 -80 192
-129 334 -140 410 -9 56 -22 100 -40 130 -41 70 -57 110 -75 183 -16 59 -20
67 -41 67 -18 0 -27 8 -34 28 -6 15 -23 52 -39 82 -16 30 -34 72 -41 93 -10
31 -16 37 -41 37 -23 0 -30 5 -35 28 -17 75 -28 110 -44 145 -10 20 -21 56
-25 78 -8 49 -57 183 -84 235 -23 43 -33 86 -62 279 -12 77 -28 152 -35 167
-20 39 -17 55 12 62 34 9 28 38 -11 51 -53 18 -56 45 -5 45 l30 0 -21 52 c-11
28 -31 64 -44 80 -36 43 -55 119 -55 222 0 69 -7 117 -29 199 -17 59 -33 134
-36 165 -7 63 -12 94 -20 132 -3 14 -10 52 -15 85 -6 33 -16 80 -24 105 -11
37 -18 46 -42 50 -26 5 -30 10 -35 50 -3 25 -19 100 -34 168 l-29 123 28 22
c32 26 28 52 -10 61 -14 4 -25 15 -28 29 -29 146 -39 192 -56 252 -28 103 -26
144 7 171 l27 21 -32 17 c-26 14 -32 22 -32 50 0 18 -3 54 -6 79 -6 44 -6 46
22 49 l29 3 -2 90 c-1 50 -11 131 -23 180 -21 90 -39 309 -40 478 l0 87 30 0
30 0 0 109 c0 122 -4 141 -30 141 -11 0 -22 4 -25 10 -3 5 -15 92 -25 192 -20
183 -35 262 -71 371 -13 40 -25 122 -35 250 -8 106 -15 197 -15 202 -4 40 3
53 31 59 24 4 30 11 30 30 0 36 -17 76 -33 76 -24 0 -44 33 -50 82 -6 44 -5
49 21 65 15 9 28 18 30 19 2 1 -3 17 -11 35 -7 19 -22 67 -33 108 -16 64 -54
131 -74 131 -3 0 -27 -11 -55 -24z m-86 -1396 c6 -47 13 -112 16 -145 2 -33 4
-61 5 -62 0 -2 9 -3 20 -3 22 0 31 -25 26 -77 -1 -18 -3 -64 -4 -103 l-2 -70
-32 0 -31 0 7 -307 c6 -284 14 -417 32 -500 6 -29 4 -33 -14 -33 -12 0 -24 -4
-27 -10 -3 -5 -1 -10 6 -10 7 0 10 -3 7 -6 -4 -3 2 -25 13 -49 11 -25 24 -87
29 -142 5 -54 17 -170 25 -257 9 -88 21 -166 27 -173 6 -7 22 -19 36 -26 36
-17 37 -33 3 -53 -34 -20 -34 -18 5 -198 13 -60 24 -122 24 -138 0 -24 4 -28
30 -28 17 0 31 -4 31 -10 1 -5 2 -15 3 -20 0 -6 6 -14 12 -18 6 -4 14 -29 18
-57 11 -77 25 -123 43 -141 10 -9 19 -24 20 -33 14 -66 23 -145 23 -193 0 -72
17 -156 38 -188 59 -91 82 -170 82 -285 0 -44 4 -95 9 -113 9 -30 8 -32 -14
-32 -35 0 -40 -18 -8 -32 15 -7 41 -21 57 -32 26 -18 27 -20 11 -32 -16 -12
-16 -14 2 -41 28 -39 51 -101 85 -223 15 -58 36 -130 45 -160 9 -30 16 -71 15
-90 -7 -144 -3 -197 17 -243 11 -26 20 -51 20 -55 1 -61 32 -162 51 -162 6 0
8 -4 5 -10 -4 -6 13 -10 42 -10 l49 0 42 -79 c23 -43 42 -85 42 -93 0 -8 13
-33 29 -55 63 -87 122 -209 151 -313 7 -25 19 -63 25 -85 9 -27 10 -46 3 -58
-7 -15 -5 -24 12 -42 15 -16 22 -39 26 -88 4 -59 2 -67 -16 -77 -28 -15 -25
-27 10 -45 17 -9 30 -23 30 -33 0 -19 21 -80 33 -99 6 -9 2 -13 -12 -13 -20 0
-28 -19 -14 -33 3 -4 8 -19 9 -33 2 -15 14 -39 28 -53 15 -15 26 -31 26 -35 0
-5 13 -25 28 -45 15 -20 47 -75 70 -122 41 -84 43 -87 89 -100 77 -23 255 -17
326 11 71 27 99 21 229 -46 17 -9 35 -11 50 -6 61 22 98 -2 98 -65 0 -87 -37
-133 -110 -137 -16 -1 -26 -8 -28 -21 -2 -11 -28 -44 -57 -73 -54 -53 -57 -62
-71 -169 -4 -29 -2 -43 6 -43 15 0 9 -48 -10 -77 -8 -13 -21 -23 -28 -23 -7 0
-10 -4 -7 -10 3 -5 19 -10 35 -10 16 0 32 -4 35 -10 3 -5 1 -10 -5 -10 -23 0
-95 -89 -130 -159 -32 -64 -38 -71 -65 -71 -24 0 -35 -8 -53 -38 -12 -20 -26
-44 -31 -52 -21 -34 -69 -138 -80 -172 -8 -25 -20 -39 -39 -46 -20 -7 -38 -31
-71 -95 -24 -47 -44 -99 -45 -115 -1 -16 -9 -36 -19 -46 -9 -10 -28 -37 -43
-61 -21 -36 -23 -47 -13 -63 10 -16 8 -26 -11 -56 -12 -21 -33 -42 -47 -47
-13 -5 -21 -14 -18 -19 4 -6 2 -16 -3 -23 -7 -8 -7 -26 1 -56 10 -36 24 -54
85 -103 75 -62 130 -87 241 -113 68 -16 93 -35 141 -108 20 -31 50 -50 157
-103 72 -36 148 -81 169 -100 41 -39 41 -39 -31 -74 -22 -11 -57 -35 -78 -54
-21 -19 -73 -49 -115 -67 -48 -20 -90 -46 -112 -69 -25 -27 -52 -42 -95 -54
-33 -9 -91 -32 -130 -51 -38 -20 -104 -46 -146 -59 -42 -14 -85 -29 -95 -34
-61 -33 -176 -67 -282 -83 -49 -8 -77 -16 -70 -21 7 -4 11 -8 8 -9 -3 0 -79
-8 -170 -18 -212 -23 -644 -22 -825 3 -232 31 -527 1 -665 -68 -27 -14 -67
-28 -87 -32 -21 -3 -78 -18 -128 -32 -49 -13 -119 -27 -155 -29 -36 -2 -74 -8
-85 -12 -11 -5 -47 -14 -80 -21 -33 -6 -78 -16 -100 -20 -22 -5 -65 -14 -95
-20 -108 -23 -172 -42 -203 -60 -18 -11 -74 -26 -126 -34 -124 -20 -145 -37
-156 -124 -5 -42 -2 -67 16 -118 13 -35 30 -73 40 -83 26 -28 84 -145 123
-251 41 -109 41 -107 21 -112 -12 -2 -11 -10 5 -43 11 -22 29 -53 39 -70 45
-69 61 -108 61 -146 0 -41 27 -106 54 -128 17 -14 23 -105 8 -128 -4 -6 -30
-22 -57 -34 -64 -28 -172 -35 -302 -20 -85 10 -111 18 -193 58 l-95 48 -255 7
c-140 4 -331 5 -425 2 -149 -5 -181 -3 -261 15 -50 11 -112 30 -138 41 -34 14
-86 23 -179 30 -74 5 -165 18 -207 30 -107 30 -204 55 -285 74 -44 10 -96 32
-140 59 -38 24 -100 54 -137 67 -61 22 -72 23 -123 13 -30 -7 -82 -24 -115
-39 -56 -25 -63 -31 -90 -89 -17 -35 -30 -69 -30 -76 0 -8 -16 -52 -35 -99
-41 -100 -46 -163 -15 -182 27 -17 25 -42 -5 -66 -14 -11 -25 -27 -25 -35 0
-8 -20 -62 -44 -119 -34 -81 -45 -119 -49 -180 -5 -72 -4 -78 14 -78 23 0 23
6 -1 -110 -24 -113 -24 -130 -6 -130 14 0 12 -9 -52 -221 -11 -36 -27 -113
-37 -170 -9 -57 -23 -124 -31 -148 -17 -52 -102 -231 -109 -231 -3 0 -31 13
-63 29 -37 19 -69 45 -91 74 -18 25 -63 72 -100 105 -52 46 -75 77 -100 129
-18 37 -38 73 -45 78 -7 6 -26 35 -41 65 -15 30 -46 78 -70 105 -23 28 -48 62
-56 77 -8 14 -53 68 -101 120 -48 51 -111 122 -141 158 -38 46 -61 66 -81 68
-17 2 -36 16 -54 41 -15 20 -62 80 -104 133 -43 53 -78 99 -78 103 0 3 -10 21
-23 38 -34 47 -47 83 -35 95 15 15 0 50 -28 65 -27 14 -77 97 -143 232 -21 44
-60 106 -86 138 -27 34 -44 64 -41 72 8 23 -3 43 -29 49 -22 6 -95 93 -95 114
0 6 5 12 12 14 15 5 -1 29 -78 110 -138 146 -186 224 -223 355 -10 38 -30 91
-44 118 -13 28 -30 74 -36 103 -12 56 -51 110 -106 143 l-30 19 39 0 39 0 -27
21 c-33 26 -123 55 -214 69 -94 15 -152 0 -196 -51 -27 -33 -39 -39 -72 -40
-36 0 -42 -4 -74 -52 -43 -66 -124 -221 -139 -267 -6 -20 -30 -58 -52 -85 -48
-58 -74 -110 -89 -179 -13 -61 -22 -73 -93 -130 -31 -26 -64 -61 -73 -79 -22
-41 -39 -57 -62 -57 -10 0 -32 -11 -48 -25 -16 -14 -33 -25 -37 -25 -5 0 -27
-13 -50 -29 -29 -20 -52 -49 -75 -92 -17 -35 -45 -78 -61 -94 -15 -17 -47 -60
-69 -95 -27 -42 -61 -79 -97 -104 -35 -25 -66 -58 -84 -90 -16 -28 -46 -68
-65 -88 -20 -20 -36 -40 -36 -44 0 -4 -11 -19 -24 -33 -14 -15 -43 -62 -66
-106 -24 -44 -48 -87 -55 -95 -6 -8 -27 -42 -45 -75 -19 -33 -42 -66 -52 -73
-10 -7 -16 -17 -13 -22 3 -5 -12 -14 -34 -21 -34 -10 -44 -9 -65 5 -14 9 -34
16 -45 16 -28 0 -37 23 -45 110 -4 41 -14 122 -22 179 -15 102 -15 104 5 118
27 18 28 63 2 70 -14 4 -20 18 -25 65 -10 95 -7 266 4 273 6 4 7 23 4 45 -5
31 -2 42 15 56 26 23 26 31 2 52 -18 16 -25 44 -22 100 1 16 7 22 22 22 22 0
22 1 16 163 -4 89 -8 279 -9 422 l-1 260 31 3 c31 3 32 5 32 51 0 27 3 69 6
95 6 38 4 46 -10 46 -9 0 -15 3 -15 8 4 26 -3 42 -20 42 -25 0 -29 16 -31 109
0 41 -3 77 -5 81 -11 18 -23 608 -14 655 6 28 11 94 12 147 2 95 3 98 25 98
l22 0 -25 50 c-39 76 -108 129 -175 134 -40 3 -179 95 -234 155 -11 13 -59 58
-106 99 -47 42 -85 83 -86 92 -2 35 -5 40 -18 40 -14 0 -271 230 -289 257 -4
7 -15 13 -24 13 -9 0 -14 2 -11 5 3 3 -8 20 -25 38 -16 18 -41 50 -55 72 -37
61 -113 135 -138 135 -15 0 -81 58 -205 181 -101 99 -204 197 -229 217 -25 20
-88 77 -140 127 -117 112 -393 378 -400 386 -8 8 -119 92 -149 111 -16 11 -20
18 -11 18 8 0 0 10 -18 22 -23 14 -30 23 -21 29 19 11 -86 108 -152 141 -30
15 -98 45 -152 68 -82 34 -106 40 -140 35 -78 -12 -165 -89 -202 -181 -17 -42
-30 -60 -44 -62 -14 -2 -21 -11 -21 -27 0 -13 -5 -25 -11 -27 -9 -3 -9 -40 -1
-148 29 -371 22 -782 -14 -851 -21 -41 -30 -43 -89 -17 -38 16 -58 31 -66 51
-7 16 -32 39 -58 54 -62 36 -169 131 -177 157 -3 12 -27 63 -52 115 -50 101
-37 87 -326 366 -167 162 -214 221 -221 279 -4 37 -2 46 10 46 8 0 15 4 15 9
0 16 -99 125 -126 139 -28 15 -30 25 -9 42 13 11 13 16 -1 42 -24 46 -84 108
-127 129 -23 12 -37 25 -34 33 8 21 -52 87 -97 107 -77 35 -178 18 -238 -39
-16 -14 -28 -32 -28 -39 0 -7 -3 -13 -7 -13 -5 0 -17 -7 -27 -15 -15 -12 -17
-17 -7 -29 21 -25 -6 -152 -38 -182 l-26 -24 23 -15 c19 -14 22 -25 22 -81 0
-56 -2 -64 -19 -64 -12 0 -21 -9 -25 -25 -4 -14 -12 -25 -19 -25 -8 0 -13 -25
-15 -78 -2 -43 -5 -89 -6 -103 -2 -13 -9 -71 -15 -129 -18 -161 -33 -263 -42
-281 -4 -8 -19 -103 -33 -210 -15 -107 -29 -204 -32 -216 -5 -20 -2 -23 20
-23 43 0 34 -38 -23 -94 l-50 -49 -28 48 c-15 26 -34 53 -40 60 -7 8 -13 18
-13 24 0 6 -12 11 -28 11 -28 0 -72 24 -72 40 0 5 -9 34 -21 65 -16 44 -29 60
-59 78 -40 23 -77 76 -90 131 -22 91 -116 369 -142 420 -36 72 -68 155 -68
177 0 9 -8 41 -19 72 -10 32 -15 57 -11 57 4 0 5 11 2 25 -3 20 0 25 17 25 26
0 24 12 -26 155 -20 55 -45 129 -58 165 -12 36 -28 99 -35 140 -7 41 -16 81
-20 90 -35 68 -62 149 -67 202 -6 70 -19 91 -88 143 -75 56 -120 75 -181 75
-56 0 -58 -1 -111 -54 -41 -41 -53 -60 -49 -74 9 -26 -22 -92 -202 -442 -76
-150 -142 -202 -209 -167 -35 19 -76 62 -96 102 -8 17 -26 42 -39 56 -14 15
-39 53 -58 85 -18 33 -52 85 -75 116 -24 32 -56 90 -71 129 -16 40 -44 88 -63
108 -18 20 -43 61 -53 91 -36 100 -69 149 -108 160 -33 9 -40 18 -93 127 -65
134 -80 155 -128 177 -19 9 -54 28 -79 43 -35 21 -58 27 -106 28 -53 0 -65 -4
-96 -30 -57 -49 -61 -59 -59 -174 1 -136 9 -165 44 -169 15 -2 27 -6 27 -10 7
-140 15 -220 24 -234 8 -11 9 -45 4 -110 -4 -51 -7 -142 -6 -201 0 -90 -3
-111 -17 -127 -17 -18 -17 -21 -2 -38 14 -15 15 -31 7 -112 -9 -87 -8 -96 9
-111 19 -16 34 -109 18 -109 -5 0 -5 -5 -2 -11 4 -6 -2 -13 -14 -16 -14 -3
-21 -13 -21 -28 0 -14 -7 -25 -19 -28 -17 -4 -18 -10 -9 -57 5 -29 16 -63 24
-76 16 -24 14 -27 -31 -39 -28 -8 -45 -9 -79 -6 -24 2 -112 88 -137 135 -13
25 -29 46 -36 46 -7 0 -17 9 -23 19 -13 26 -13 31 5 31 21 0 19 6 -18 75 -20
37 -43 65 -60 73 -27 13 -27 15 -12 32 15 16 14 23 -9 90 -14 40 -27 74 -28
75 -2 2 -18 10 -37 20 -23 11 -30 19 -22 25 14 8 -11 103 -76 295 -34 101 -56
144 -79 157 -10 7 -55 89 -118 215 -7 15 -20 23 -38 23 -19 0 -40 13 -70 46
-24 25 -64 61 -89 80 -39 29 -55 34 -100 34 -46 0 -63 -6 -107 -35 -29 -20
-66 -55 -83 -78 l-31 -42 26 -3 c14 -2 26 -5 26 -8 0 -3 -22 -37 -49 -77 -33
-48 -62 -78 -85 -89 -37 -18 -76 -48 -76 -59 0 -4 11 -10 25 -13 l24 -6 -29
-30 c-16 -16 -41 -49 -55 -74 -31 -52 -95 -99 -132 -94 -42 5 -64 45 -70 131
-6 72 -7 77 -29 77 -12 0 -25 3 -27 8 -3 4 2 51 10 106 16 109 13 126 -17 126
-36 0 -28 77 30 320 14 58 26 93 53 150 14 30 29 75 33 99 5 34 13 47 35 60
35 19 36 27 7 35 -22 6 -22 7 -5 17 18 10 18 12 -2 26 -16 11 -21 25 -21 61 0
40 -7 56 -46 108 -32 44 -58 67 -87 79 -78 32 -92 40 -107 58 -10 12 -56 28
-125 44 -61 14 -113 30 -116 35 -3 5 -116 11 -250 14 -134 2 -272 9 -307 15
-71 11 -160 48 -212 89 -19 15 -49 34 -66 43 -56 29 -217 85 -319 112 -107 28
-183 51 -227 67 -31 12 -122 104 -114 116 3 5 54 46 113 92 59 46 126 99 148
118 22 18 45 36 50 41 10 7 119 67 188 104 24 12 34 23 27 27 -13 8 102 85
168 112 45 19 88 44 110 65 7 7 19 13 25 14 7 0 3 4 -7 8 -17 6 -15 9 12 20
34 14 43 31 17 31 -19 0 -19 18 1 66 16 38 15 149 -2 255 -5 31 -3 37 16 42
31 8 22 39 -17 56 -18 8 -35 21 -38 30 -8 20 -26 172 -31 271 -2 41 -7 89 -10
107 -5 28 -2 33 27 49 31 15 32 18 16 28 -41 25 -45 33 -52 108 l-7 77 28 3
c27 3 28 4 25 68 -1 36 -20 145 -42 243 -21 98 -39 197 -39 219 0 52 29 251
38 260 4 4 31 0 60 -8 39 -12 59 -25 79 -52 15 -20 44 -56 65 -79 20 -23 51
-67 69 -98 17 -31 53 -80 79 -108 42 -46 61 -58 159 -96 101 -39 116 -42 169
-36 52 6 62 12 123 68 37 34 95 82 130 107 35 24 102 83 149 130 87 87 164
150 186 150 33 0 174 114 174 141 0 5 18 27 41 50 34 34 45 40 67 34 46 -11
76 -41 90 -88 16 -54 11 -67 -26 -67 l-27 0 4 -92 c1 -51 -2 -130 -9 -174 -17
-121 11 -420 46 -483 31 -56 32 -89 2 -93 l-22 -3 25 -26 c13 -14 38 -34 56
-44 31 -18 35 -18 114 -1 77 16 152 47 165 67 3 5 23 9 45 9 55 0 60 3 224
144 58 51 101 77 145 91 24 8 113 71 265 186 57 44 106 67 178 85 36 9 89 33
128 59 59 39 73 43 123 43 53 -1 58 -3 74 -32 11 -21 17 -61 19 -121 1 -49 6
-142 11 -205 4 -63 7 -144 7 -180 l0 -65 -36 -5 c-34 -5 -36 -6 -34 -45 3
-115 3 -113 43 -134 l37 -20 -33 -11 c-35 -13 -50 -46 -34 -77 5 -10 6 -27 2
-37 -9 -26 14 -174 41 -259 22 -67 39 -87 77 -87 27 0 38 -32 17 -45 -44 -26
-43 -25 -30 -115 15 -100 44 -240 51 -252 3 -4 16 -8 29 -8 23 0 40 -24 29
-41 -3 -5 2 -9 10 -9 11 0 16 -10 16 -32 0 -42 48 -168 64 -168 6 0 17 -8 24
-17 85 -124 91 -130 136 -143 39 -11 51 -10 78 3 18 8 71 26 118 41 68 20 94
34 127 67 24 23 41 45 38 49 -2 4 5 16 17 26 48 43 146 167 142 179 -3 7 -1
16 5 20 18 11 12 25 -10 25 -20 0 -20 1 -2 24 33 44 43 60 106 186 52 106 67
128 97 142 19 10 47 28 62 40 l27 22 -27 12 -27 11 39 17 c70 29 177 21 258
-20 14 -8 37 -14 51 -14 55 0 57 -50 2 -64 -37 -10 -30 -33 26 -90 46 -46 52
-58 64 -118 19 -99 55 -148 109 -148 21 0 35 -3 33 -7 -2 -5 20 -28 48 -53 39
-33 62 -64 86 -117 19 -40 39 -72 45 -73 6 0 24 -30 39 -67 16 -38 38 -84 50
-103 34 -55 163 -361 184 -437 17 -65 49 -147 78 -203 12 -22 11 -25 -7 -28
-11 -2 -20 -7 -20 -11 0 -13 24 -31 41 -31 9 0 27 -9 40 -20 23 -19 23 -21 6
-34 -16 -12 -15 -17 14 -81 20 -45 54 -94 102 -145 81 -88 84 -92 111 -140 11
-19 25 -38 31 -42 7 -4 32 -33 56 -65 73 -97 137 -150 208 -173 l53 -18 28 26
c15 15 35 43 45 62 10 19 34 53 54 76 35 40 71 120 71 157 0 9 4 17 9 17 17 0
51 106 57 180 8 93 20 121 62 139 22 10 32 21 32 37 0 12 -5 24 -12 26 -24 8
1 38 32 38 20 0 30 5 30 15 0 8 4 15 10 15 5 0 9 3 8 8 -1 4 7 25 18 47 11 22
26 65 33 95 7 30 28 87 46 125 19 39 39 85 46 103 l12 33 38 -37 c21 -20 52
-63 69 -96 23 -42 42 -64 68 -77 36 -18 63 -53 125 -163 34 -58 34 -68 1 -68
-35 0 -26 -20 21 -45 36 -18 58 -45 38 -45 -4 0 -14 -4 -21 -9 -10 -6 -8 -18
12 -56 15 -26 26 -54 26 -62 0 -8 7 -46 16 -84 13 -56 21 -72 40 -81 17 -8 21
-15 14 -23 -7 -8 -2 -15 17 -24 l27 -13 -22 -17 -23 -17 26 -47 c31 -54 51
-123 65 -220 6 -38 20 -83 33 -105 13 -20 26 -45 30 -54 3 -9 17 -35 32 -57
41 -66 95 -54 186 41 l56 59 64 -3 c59 -2 69 1 114 32 75 51 182 133 255 195
36 31 88 71 115 89 28 19 57 41 64 50 17 20 76 13 149 -20 29 -13 58 -24 65
-24 16 0 64 -51 105 -110 17 -25 53 -70 82 -100 28 -30 63 -75 78 -100 29 -49
52 -73 125 -134 26 -22 57 -55 68 -73 16 -26 27 -33 52 -33 24 0 38 -8 56 -33
13 -18 40 -45 60 -60 20 -16 68 -59 106 -96 39 -36 97 -89 130 -116 33 -27 94
-82 135 -122 41 -39 84 -80 96 -90 11 -10 42 -47 68 -82 35 -48 46 -71 41 -88
-3 -13 -2 -23 3 -23 4 0 35 -23 67 -51 33 -28 77 -59 97 -70 20 -10 51 -36 68
-58 20 -25 43 -41 63 -45 42 -9 172 -139 144 -144 -17 -4 -17 -6 4 -28 20 -21
20 -24 5 -24 -15 0 -15 -2 -4 -14 86 -89 113 -124 147 -191 15 -30 348 -374
388 -400 27 -18 154 -53 225 -61 47 -5 63 -2 114 22 76 37 169 98 188 125 8
12 26 29 39 38 72 47 165 133 177 163 8 18 32 60 55 93 22 33 56 97 75 142 22
52 42 84 53 87 10 2 21 14 24 25 3 14 13 21 28 21 43 0 46 73 9 245 -14 66
-32 161 -40 212 -8 51 -28 130 -45 175 -17 46 -36 101 -43 123 -13 45 -33 83
-53 103 -7 7 -13 28 -13 47 0 18 -10 55 -22 82 -12 26 -21 51 -20 56 1 4 -5 7
-13 7 -8 0 -14 6 -13 13 2 7 -10 13 -31 15 -40 4 -52 15 -71 62 -7 19 -32 55
-55 80 -32 35 -47 65 -68 131 -17 54 -36 96 -52 110 -13 13 -25 29 -25 35 0
20 -53 119 -79 147 -31 34 -51 100 -58 195 -8 107 3 161 33 172 67 26 164 12
164 -24 0 -25 55 -37 99 -21 22 7 41 12 43 10 1 -1 27 -6 57 -9 30 -4 75 -17
100 -31 25 -13 100 -36 166 -51 66 -14 134 -32 150 -38 17 -7 71 -21 120 -30
50 -9 111 -21 137 -26 50 -10 112 -36 253 -105 100 -49 162 -62 227 -45 70 18
87 31 117 91 29 57 33 91 35 282 1 35 6 51 19 58 25 14 21 38 -10 68 l-28 26
30 3 c16 2 32 8 35 12 11 18 11 216 0 303 -15 126 -28 182 -57 247 -14 30 -34
78 -44 106 -11 29 -30 63 -44 78 -13 14 -29 41 -36 61 -7 19 -19 35 -26 35 -8
0 -18 12 -24 28 -15 41 -73 166 -79 172 -3 3 -10 14 -16 25 -6 11 -24 22 -39
25 -23 4 -31 13 -42 50 -7 25 -22 74 -33 110 -48 156 -70 265 -80 386 -6 71
-14 161 -18 199 -4 39 -4 90 0 115 4 25 10 68 14 95 3 28 13 69 22 92 14 34
22 43 46 45 31 3 35 13 39 108 2 32 6 45 17 45 10 0 15 -13 17 -40 2 -22 8
-52 14 -67 13 -32 5 -48 -24 -48 -20 -1 -21 -2 -5 -14 10 -7 15 -15 12 -18 -2
-3 11 -13 31 -22 19 -9 35 -21 35 -25 0 -11 46 -41 71 -46 11 -2 26 -11 35
-20 9 -8 28 -22 43 -29 15 -8 36 -31 46 -50 11 -20 23 -36 27 -36 5 0 8 -6 8
-12 0 -7 21 -35 45 -62 25 -27 45 -52 45 -57 0 -15 158 -126 244 -170 32 -17
81 -48 108 -70 27 -21 59 -39 70 -39 29 0 51 -27 44 -54 -5 -20 10 -40 97
-128 165 -167 246 -234 295 -242 26 -4 42 -12 42 -20 0 -16 21 -26 53 -26 20
0 42 -12 157 -90 30 -20 78 -49 107 -63 28 -15 54 -31 58 -37 3 -5 16 -10 28
-10 12 0 45 -17 73 -38 27 -20 63 -46 80 -57 57 -39 221 -105 345 -139 70 -19
155 -50 190 -69 128 -69 143 -76 186 -83 76 -11 130 3 179 48 60 55 78 117 65
230 -5 46 -8 85 -5 87 2 2 0 9 -5 15 -5 6 -16 54 -25 106 -9 52 -20 97 -25
100 -5 3 -11 15 -15 28 -5 15 -15 22 -31 22 -15 0 -26 7 -30 21 -17 53 -7 546
15 709 5 36 12 121 16 190 8 149 14 170 49 170 14 0 25 1 25 3 0 2 7 55 15
118 9 63 17 190 19 282 5 179 6 183 62 242 16 17 27 33 26 38 -4 14 15 7 33
-13 10 -11 26 -20 36 -20 10 0 20 -4 23 -9 3 -4 34 -19 68 -32 53 -19 78 -38
155 -116 51 -50 105 -100 120 -110 50 -32 144 -102 244 -181 42 -33 81 -76
103 -112 20 -33 44 -66 52 -75 14 -13 12 -15 -17 -15 l-33 0 84 -83 c47 -45
100 -92 119 -104 40 -24 165 -124 259 -206 37 -32 81 -66 97 -74 40 -21 100
-68 158 -124 26 -26 60 -51 75 -57 15 -5 48 -17 75 -27 33 -12 47 -22 47 -35
0 -10 -5 -22 -11 -25 -6 -4 32 -48 88 -103 54 -54 111 -114 126 -135 41 -55
124 -117 156 -117 16 0 37 -10 51 -25 13 -14 31 -25 40 -25 14 0 114 -77 214
-165 22 -19 47 -35 55 -35 9 0 27 -14 41 -31 13 -17 47 -49 75 -69 27 -21 88
-75 135 -120 47 -45 117 -106 155 -135 69 -52 116 -93 305 -269 52 -48 104
-92 115 -96 140 -56 209 -94 202 -114 -3 -6 -11 -10 -18 -8 -22 4 34 -37 59
-44 26 -7 29 -21 5 -28 -10 -3 -83 -15 -162 -26 -80 -12 -165 -28 -190 -37
-81 -27 -164 -84 -251 -174 -47 -47 -94 -93 -105 -100 -22 -15 -178 -190 -210
-236 -11 -15 -34 -50 -51 -78 -17 -27 -55 -75 -85 -105 -41 -41 -59 -69 -72
-113 l-18 -57 -50 1 c-44 2 -51 5 -68 35 -11 19 -36 40 -56 48 -24 10 -40 26
-50 48 -22 54 -64 85 -170 124 -131 48 -192 61 -356 75 -135 11 -198 10 -498
-10 -208 -14 -280 -25 -456 -73 -148 -40 -283 -97 -335 -143 -34 -30 -76 -55
-134 -83 -28 -12 -71 -43 -97 -67 -41 -38 -45 -45 -26 -45 18 0 11 -10 -40
-62 -72 -74 -113 -137 -113 -174 0 -14 -15 -51 -33 -82 -54 -93 -87 -199 -87
-280 0 -32 -13 -85 -36 -148 -42 -117 -53 -168 -55 -263 -2 -63 -4 -71 -22
-71 -15 0 -18 -5 -15 -25 3 -16 1 -25 -7 -25 -23 0 12 -160 46 -211 32 -46 59
-133 59 -189 0 -43 7 -67 31 -110 17 -30 41 -72 53 -93 11 -22 34 -55 51 -75
17 -21 48 -64 69 -97 46 -72 100 -126 190 -188 80 -56 111 -72 153 -80 18 -4
74 -27 125 -52 87 -42 145 -59 296 -87 47 -9 77 -9 125 0 34 6 103 18 152 27
267 45 337 60 410 83 44 14 83 29 86 34 3 5 23 11 45 14 21 4 129 51 239 106
240 120 240 120 269 147 12 12 25 18 29 15 3 -3 25 15 49 42 24 26 57 61 73
78 45 46 95 112 89 118 -2 3 2 11 11 18 8 7 15 18 15 24 0 7 25 39 55 72 30
32 61 70 68 84 31 58 60 106 72 120 32 38 65 145 57 188 -2 6 2 12 8 12 5 0
10 11 10 24 0 18 6 25 22 28 20 3 23 10 26 53 2 28 12 81 23 118 20 67 21 69
47 62 15 -4 72 -15 127 -26 55 -10 109 -21 121 -24 11 -2 50 -24 85 -47 94
-64 127 -82 197 -107 34 -13 62 -27 62 -32 0 -5 8 -9 18 -9 10 0 27 -7 38 -15
10 -8 33 -15 49 -16 26 -2 25 -3 -10 -8 l-40 -6 43 -8 c24 -4 54 -14 66 -23
63 -41 161 -50 511 -46 l300 4 153 39 c84 21 164 39 178 39 14 0 45 11 70 25
25 14 53 25 64 25 33 0 133 49 168 82 21 21 32 41 32 60 0 22 8 32 39 47 29
15 48 37 75 87 26 47 34 70 27 77 -17 17 -13 31 12 42 19 9 23 22 34 105 6 52
12 147 12 210 1 104 -1 117 -19 133 -18 15 -20 29 -20 117 0 55 0 103 0 108 1
4 -14 9 -32 12 -31 5 -33 8 -45 65 -25 128 -117 427 -143 465 -9 14 -33 61
-54 105 -21 44 -46 88 -55 99 -44 50 -285 183 -381 209 -70 20 -198 43 -320
57 -52 7 -128 20 -169 31 -41 10 -86 19 -100 19 -14 0 -48 6 -76 13 l-50 14
30 16 c20 11 24 16 13 17 -24 0 -23 3 17 44 19 20 39 54 45 78 6 24 13 50 16
58 13 37 37 231 36 285 -1 51 12 211 23 280 2 11 6 40 10 65 3 25 9 52 12 60
11 30 30 150 23 150 -4 0 -5 11 -2 25 4 22 1 25 -23 25 -25 0 -27 2 -21 33 3
17 17 118 31 222 14 105 30 206 35 225 5 19 25 108 44 198 20 90 43 178 52
195 9 18 26 73 38 122 21 85 24 90 52 95 22 4 30 11 32 30 7 70 26 149 44 185
21 40 25 52 73 225 18 67 34 104 54 125 35 36 54 74 71 140 14 53 42 107 72
137 10 10 20 30 23 45 4 16 15 63 26 106 23 94 23 97 3 97 -13 0 -15 8 -10 41
3 23 10 47 15 53 22 27 69 129 75 164 4 20 10 46 13 57 l6 20 8 -20 c4 -11 12
-58 18 -105z m106 -1489 c3 -5 1 -12 -5 -16 -5 -3 -10 1 -10 9 0 18 6 21 15 7z
m-5335 -911 c0 -5 -7 -7 -15 -4 -8 4 -15 8 -15 10 0 2 7 4 15 4 8 0 15 -4 15
-10z m-8598 -1205 c-5 -28 -12 -31 -30 -13 -19 19 -14 38 12 38 19 0 22 -4 18
-25z m13418 -337 c119 -23 111 -19 175 -73 67 -56 75 -65 75 -81 0 -7 14 -36
30 -62 27 -44 30 -58 30 -128 0 -43 7 -103 15 -133 8 -30 15 -76 16 -103 2
-45 4 -48 29 -48 24 0 27 -5 39 -64 7 -35 11 -88 10 -117 l-3 -54 35 -3 36 -3
6 -112 c8 -125 3 -178 -18 -221 -8 -16 -15 -35 -15 -42 0 -15 -69 -74 -88 -74
-7 0 -18 -13 -23 -29 -7 -21 -22 -34 -51 -46 -73 -29 -171 -44 -259 -40 -259
13 -310 17 -358 30 -28 7 -69 22 -90 34 -22 11 -41 17 -44 15 -16 -16 -266 55
-321 91 -13 9 -53 24 -89 34 -68 20 -101 38 -155 83 -18 15 -51 37 -73 49 -35
18 -47 32 -82 107 -23 48 -40 90 -39 95 1 4 -3 7 -9 7 -6 0 -8 8 -5 18 4 12
-4 28 -22 48 -43 44 -52 67 -52 133 0 60 0 61 -28 61 l-29 0 14 68 c11 48 11
72 4 84 -16 26 -13 36 12 44 12 3 41 15 65 26 l42 19 34 -26 c18 -14 37 -25
42 -25 11 0 18 -48 19 -127 l0 -52 48 -11 c27 -5 52 -8 56 -6 4 3 8 -7 8 -22
0 -15 8 -56 18 -92 9 -36 17 -73 16 -82 0 -12 8 -18 22 -19 17 -1 15 -3 -8 -9
-28 -7 -28 -8 12 -9 39 -1 45 -5 83 -56 22 -30 44 -55 48 -55 4 0 39 -30 77
-66 76 -71 126 -103 281 -178 80 -39 103 -54 111 -77 11 -28 14 -29 75 -29 79
0 131 14 164 45 14 13 58 36 97 52 77 29 163 87 186 125 55 88 99 230 80 260
-5 7 -9 56 -9 109 l0 97 -27 8 c-16 4 -32 6 -36 5 -4 -1 -7 4 -5 11 2 12 -32
89 -94 213 -21 42 -103 125 -123 125 -7 0 -34 12 -61 27 -166 89 -179 94 -319
103 -155 10 -185 17 -185 38 0 9 -5 30 -12 49 -6 18 -9 35 -6 38 3 3 48 16 99
29 85 22 109 24 259 20 107 -4 202 -12 270 -26z m-2737 -538 c37 -6 69 -18 88
-35 17 -14 37 -25 45 -25 8 0 14 -4 14 -9 0 -5 23 -14 50 -20 69 -15 121 -44
145 -80 11 -17 23 -31 28 -31 4 0 7 -5 7 -10 0 -22 66 -109 87 -115 12 -3 44
-26 71 -50 69 -64 96 -143 95 -278 0 -79 -3 -101 -18 -117 -16 -18 -16 -22 -3
-37 8 -10 13 -27 11 -38 -1 -11 -5 -40 -8 -65 -8 -61 -12 -70 -32 -70 -11 0
-14 3 -7 10 7 7 6 35 -2 88 -7 42 -13 78 -13 78 -1 1 -11 5 -23 8 l-23 7 22 9
c21 9 22 13 16 77 -3 37 -12 82 -21 98 -22 44 -101 123 -147 147 -22 11 -49
28 -60 38 -28 25 -83 55 -130 70 -22 7 -47 18 -55 24 -24 19 -110 54 -177 72
-48 13 -91 15 -195 12 -151 -6 -196 -18 -291 -79 -34 -22 -116 -67 -183 -100
-133 -65 -164 -93 -263 -242 -77 -115 -85 -144 -78 -301 4 -72 9 -148 13 -168
4 -31 3 -38 -10 -38 -19 0 -21 -25 -3 -37 8 -5 1 -10 -20 -13 -37 -6 -39 7 21
-104 29 -54 78 -111 144 -165 39 -33 106 -71 124 -71 5 0 25 -11 46 -24 60
-40 173 -57 445 -67 252 -9 300 -17 276 -45 -6 -8 -9 -17 -6 -21 4 -3 2 -12
-3 -19 -6 -6 -9 -17 -8 -24 2 -7 -5 -14 -15 -15 -10 -2 -29 -11 -42 -19 -14
-9 -28 -17 -32 -18 -16 -5 -43 -33 -43 -44 0 -14 -53 -48 -90 -59 -14 -4 -45
-16 -70 -27 -98 -45 -132 -54 -244 -69 -84 -11 -208 -8 -321 7 -64 8 -225 95
-268 144 -68 78 -84 97 -113 140 -17 25 -44 74 -61 110 -32 66 -44 138 -58
353 -5 76 -5 78 20 87 22 8 25 15 25 62 0 58 17 163 31 190 5 10 9 22 9 28 0
23 211 438 248 489 13 17 25 39 26 49 2 9 12 18 24 20 11 2 19 9 16 15 -2 7 9
21 26 30 17 10 47 34 68 53 20 19 46 37 57 40 11 4 57 24 103 45 46 22 86 39
90 39 3 0 16 11 27 23 22 26 58 34 195 45 47 4 92 11 100 16 48 31 212 45 323
26z m552 -1005 c0 -5 -10 -11 -22 -13 -16 -2 -23 2 -23 13 0 11 7 15 23 13 12
-2 22 -7 22 -13z m44 -101 c-2 -55 -5 -64 -20 -64 -17 0 -24 -16 -20 -42 0 -5
-25 -8 -56 -7 -32 0 -52 3 -45 6 6 2 12 13 12 24 0 12 7 19 19 19 13 0 24 13
34 39 9 22 21 42 27 46 5 3 10 16 10 29 0 30 10 39 27 24 9 -7 13 -31 12 -74z"/>
<path d="M23860 18665 c-304 -20 -378 -34 -448 -83 -15 -11 -53 -29 -85 -41
-83 -30 -128 -55 -156 -85 -14 -14 -29 -26 -35 -26 -23 0 -228 -129 -264 -166
-21 -21 -50 -47 -65 -57 -14 -9 -34 -33 -43 -53 -9 -19 -29 -43 -43 -52 -43
-28 -56 -45 -70 -92 -7 -25 -17 -52 -22 -60 -5 -8 -12 -22 -16 -30 -4 -8 -11
-18 -17 -22 -6 -4 1 -11 17 -17 l27 -10 -17 -36 c-9 -19 -20 -35 -25 -35 -4 0
-15 -15 -23 -32 -9 -18 -24 -49 -35 -68 -10 -19 -19 -53 -19 -75 0 -22 -7 -65
-16 -95 -9 -30 -24 -86 -35 -125 -17 -61 -38 -95 -61 -95 -17 0 -30 -166 -20
-255 9 -76 14 -93 35 -112 32 -28 39 -87 12 -106 -18 -13 -18 -14 -1 -21 16
-6 16 -8 3 -24 -14 -15 -13 -28 9 -117 13 -55 29 -120 34 -144 5 -25 31 -92
58 -150 27 -58 57 -135 66 -170 9 -35 27 -85 40 -110 13 -25 35 -72 50 -103
32 -71 116 -150 181 -172 67 -23 80 -20 107 19 13 19 51 60 86 91 35 32 79 86
101 125 22 37 50 80 63 96 13 15 38 50 56 76 19 28 61 67 101 95 38 26 113 79
167 118 54 40 121 83 149 97 29 15 98 65 155 112 98 82 158 118 238 144 49 15
188 100 225 137 17 17 49 40 71 52 22 11 56 34 75 51 19 17 62 42 95 55 157
63 253 111 295 145 25 21 70 54 100 73 31 19 62 41 70 49 30 29 109 75 250
147 160 82 217 118 199 124 -19 6 28 31 113 61 42 15 110 43 151 62 41 19 79
35 84 35 14 0 83 66 83 79 0 6 -9 11 -21 11 -16 0 -19 4 -14 18 15 37 17 54
11 106 -6 41 -17 67 -50 113 -41 56 -48 60 -110 77 -36 10 -83 30 -104 45 -53
38 -298 155 -357 171 -78 20 -334 130 -390 167 -78 51 -156 74 -280 83 -221
16 -539 19 -735 5z m739 -485 c29 -5 67 -16 84 -23 74 -32 96 -40 182 -63 149
-41 165 -46 165 -53 0 -3 -14 -15 -30 -26 -17 -11 -33 -29 -36 -40 -8 -26 -54
-75 -71 -75 -21 0 -15 -17 10 -25 13 -4 17 -8 10 -12 -7 -2 -13 -11 -13 -18 0
-8 -16 -22 -35 -31 -19 -9 -45 -27 -58 -41 -12 -13 -52 -42 -89 -64 -37 -21
-70 -44 -74 -50 -3 -6 -16 -14 -28 -19 -20 -8 -20 -9 3 -9 20 -1 8 -12 -55
-53 -43 -28 -114 -69 -157 -90 -43 -21 -92 -49 -110 -62 -18 -13 -56 -34 -84
-47 -29 -13 -53 -27 -53 -31 0 -5 -5 -8 -11 -8 -7 0 -49 -35 -94 -79 -45 -43
-93 -82 -106 -86 -12 -4 -44 -21 -70 -36 -26 -16 -54 -27 -62 -23 -9 3 -17 -2
-21 -13 -6 -20 -45 -37 -107 -47 -24 -4 -40 -14 -49 -31 -7 -13 -37 -39 -67
-57 -29 -18 -53 -35 -53 -38 0 -17 -86 -73 -115 -76 -17 -1 -43 -13 -58 -26
-14 -13 -58 -42 -99 -63 -73 -40 -178 -133 -178 -158 0 -17 -100 -87 -123 -87
-23 0 -75 75 -83 119 -3 20 -12 53 -20 74 -20 53 -18 76 9 86 l22 9 -25 10
c-24 9 -24 10 -5 18 27 10 35 23 35 59 0 20 -8 36 -26 50 -24 19 -26 25 -19
63 5 29 15 48 30 58 20 13 22 19 13 34 -9 14 -7 28 11 66 12 27 26 56 32 64 5
8 12 23 15 32 9 25 21 26 137 7 131 -22 172 -35 215 -71 18 -15 45 -31 60 -34
15 -4 32 -10 37 -14 27 -18 96 -31 150 -28 55 3 61 6 82 37 17 25 23 48 23 87
0 46 3 56 25 70 22 14 25 21 19 53 -4 20 -18 63 -31 96 -22 53 -24 70 -19 148
4 49 11 97 16 108 6 10 12 36 15 56 2 21 7 46 10 56 5 11 2 17 -8 17 -8 0 -17
7 -21 15 -3 10 -19 15 -46 15 -22 0 -40 4 -40 9 0 5 -9 11 -20 14 -16 4 -20
14 -20 45 0 32 7 47 31 71 17 17 34 31 38 31 4 0 21 -16 37 -35 16 -19 33 -35
38 -35 15 0 66 -52 66 -67 0 -19 34 -33 78 -33 32 0 43 -6 62 -30 13 -16 30
-30 39 -30 9 0 32 -11 52 -24 41 -28 105 -56 127 -56 9 0 26 -10 39 -22 19
-18 27 -20 42 -11 10 6 34 15 53 18 35 7 127 85 129 109 0 6 2 19 4 29 2 13
-4 17 -25 17 -25 0 -28 3 -23 23 2 12 8 60 13 107 4 47 13 99 19 116 12 30 15
32 106 59 23 7 106 4 154 -5z m-1259 -540 c0 -5 -4 -10 -9 -10 -6 0 -13 5 -16
10 -3 6 1 10 9 10 9 0 16 -4 16 -10z"/>
<path d="M3290 21372 c-31 -16 -91 -41 -133 -57 -43 -15 -80 -31 -82 -36 -3
-4 12 -18 32 -31 33 -20 51 -23 139 -23 87 0 105 3 124 20 18 17 21 26 15 64
-8 53 -22 91 -32 91 -5 0 -33 -13 -63 -28z"/>
</g>
</svg>
